**ABCDEFGHIJKLMNOPQRSTUVWXYZabcdefghijklmnopqrstuvwxyz**************************
**PARASOLID !"#$%&'()*+,-./:;<=>?@[\]^_`{|}~0123456789**************************
**PART1;
MC=;
MC_MODEL=;
MC_ID=unknown;
OS=Windows;
OS_RELEASE=;
FRU=;
APPL=Autodesk Inventor 2020;
SITE=unknown;
USER=unknown;
FORMAT=text;
GUISE=transmit;
KEY=cube;
FILE=C:\Users\maksn\Desktop\forge\content\cube.x_t;
DATE=2020-Mar-28 20:18:12;
**PART2;
SCH=SCH_3100154_31001;
USFLD_SIZE=0;
**PART3;
**END_OF_HEADER*****************************************************************
T51 : TRANSMIT FILE created by modeller version 310015417 SCH_3100154_310010 12
 1 83 2 3 0 0 0 0 0 0 1e3 1e-8 0 0 0 1 0 1 1 4 5 6 7 0 0 8 9 10 0 0 0 0 0 0 0 81
 1 2 83 11 1 12 0 0 0 0 70 3 0 4 T1 0 0 6 20 1 13 13 13 4 36 0 1 0 14 0 0 15 0 5
0 5 62 0 14 16 0 0 +.015 0 0 1 0 0 0 0 -1 30 6 56 0 9 17 0 0 +.015 .015 .015 0 -
1 0 29 7 44 0 10 18 0 .015 -.015 .015 19 8 1 0 1 15 0 19 V0 16 9 32 0 ?20 0 21 6
 0 0 1 18 10 28 0 20 0 22 7 ?1 17 20 0 23 24 25 10 26 9 0 27 +18 22 23 0 24 10 2
8 18 ?1 17 24 0 23 29 20 22 30 31 0 32 +18 28 18 0 29 22 33 34 ?1 29 18 43 0 22
 34 7 .015 -.015 -.015 29 34 42 0 28 35 18 .015 .015 -.015 29 35 41 0 33 36 34 .
015 .015 .015 18 33 16 0 26 28 37 35 ?1 29 36 40 0 37 38 35 -.015 -.015 -.015 18
 37 11 0 39 33 40 36 ?1 29 38 39 0 40 41 36 -.015 .015 -.015 18 40 9 0 42 37 43
 38 ?1 29 41 38 0 43 44 38 -.015 .015 .015 18 43 7 0 45 40 46 41 ?1 29 44 37 0 4
6 0 41 -.015 -.015 .015 18 46 6 0 47 43 0 44 ?1 17 47 0 48 49 30 46 27 21 0 50 -
15 48 26 0 32 51 0 17 49 0 48 32 47 37 50 52 0 53 -17 30 0 48 47 32 10 24 31 0 0
 -17 27 0 54 26 55 10 47 21 0 30 +16 21 29 0 ?27 9 31 17 0 0 1 17 50 0 56 57 53
 46 49 52 0 55 +15 56 4 0 57 58 0 17 57 0 56 59 50 43 55 60 0 0 +17 53 0 56 50 5
9 37 61 62 0 0 +16 52 12 0 ?50 63 62 64 0 0 1 17 55 0 54 27 45 46 57 60 0 0 -15
 54 31 0 27 65 0 17 45 0 54 55 26 43 66 63 0 67 +16 60 5 0 ?57 68 0 69 0 0 1 16
 68 8 0 ?59 62 60 70 0 0 1 30 69 45 0 60 0 70 0 +-.015 -.015 .015 0 1 0 30 70 46
 0 68 69 71 0 +-.015 .015 .015 0 0 -1 30 71 47 0 62 70 64 0 +-.015 .015 -.015 0
 -1 0 16 62 10 0 ?53 52 68 71 0 0 1 30 64 48 0 52 71 72 0 +-.015 -.015 -.015 0 0
 1 30 72 49 0 63 64 73 0 +.015 .015 .015 -1 0 0 16 63 15 0 ?45 74 52 72 0 0 1 30
 73 50 0 74 72 75 0 +.015 .015 -.015 0 0 1 16 74 17 0 ?25 76 63 73 0 0 1 30 75 5
1 0 76 73 77 0 +-.015 .015 -.015 1 0 0 16 76 19 0 ?78 79 74 75 0 0 1 30 77 52 0
 79 75 80 0 +.015 -.015 -.015 0 1 0 16 79 22 0 ?29 81 76 77 0 0 1 30 80 53 0 81
 77 82 0 +-.015 -.015 -.015 1 0 0 16 81 24 0 ?32 31 79 80 0 0 1 30 82 54 0 31 80
 17 0 +.015 -.015 .015 0 0 -1 16 31 27 0 ?24 21 81 82 0 0 1 30 17 55 0 21 82 6 0
 +-.015 -.015 .015 1 0 0 17 32 0 48 30 49 22 39 81 0 83 +17 39 0 84 61 83 37 32
 81 0 49 -17 83 0 84 39 78 22 29 79 0 0 -15 84 21 0 78 85 0 17 78 0 84 83 61 28
 42 76 0 86 +17 29 0 23 25 24 28 83 79 0 78 +15 23 34 0 20 14 0 17 25 0 23 20 29
 33 86 74 0 66 +17 86 0 87 42 66 28 25 74 0 0 -17 66 0 87 86 67 33 45 63 0 0 -15
 87 14 0 66 88 0 17 67 0 87 66 42 43 59 68 0 57 -17 42 0 87 67 86 40 78 76 0 61
 -17 59 0 56 53 57 40 67 68 0 0 +17 61 0 84 78 39 40 53 62 0 59 -14 88 13 89 ?58
 85 87 4 90 +0 0 58 85 19 81 1 89 70 91 88 92 0 93 94 95 14 58 3 93 ?0 88 56 4 9
6 +0 0 0 88 19 14 85 20 94 ?88 51 84 4 97 +0 0 88 51 19 50 90 58 0 88 96 97 0 +0
 .015 -.015 0 1 0 0 0 1 13 19 2 0 0 0 0 0 0 8 14 14 14 33 98 ?65 0 23 4 5 +0 0 6
5 0 19 81 1 98 82 91 14 99 0 100 0 101 14 65 30 100 ?51 14 54 4 16 +0 0 51 14 19
 81 1 100 79 91 65 102 0 103 98 104 14 51 25 103 ?85 65 48 4 105 +0 0 85 65 19 5
0 16 61 0 65 105 5 0 +0 .015 .015 0 0 1 0 -1 0 50 105 60 0 51 97 16 0 +0 -.015 .
015 0 -1 0 0 0 -1 50 97 59 0 85 90 105 0 +0 -.015 -.015 0 0 -1 0 1 0 81 1 103 76
 91 51 106 0 94 100 107 80 1 91 108 109 8015 0 0 0 0 3 5 0 0 0 FFFFTFFFFFFFFF2 8
1 2 106 75 108 51 110 103 111 102 112 113 81 1 94 73 91 85 111 0 89 103 114 83 1
 107 0 81 2 111 72 108 85 115 94 92 106 116 117 83 1 114 0 80 2 108 118 119 8014
 0 0 0 0 3 5 0 0 0 FFFFTFFFFFFFFF2 1 81 1 115 71 120 85 0 111 121 110 122 81 2 9
2 69 108 88 121 89 123 111 124 125 83 4 116 0 0 .2902572924052055 0 82 1 117 0 8
1 1 121 68 120 88 0 92 126 115 127 81 2 123 66 108 58 126 93 0 92 128 129 83 4 1
24 0 0 .2902572924052055 0 82 1 125 0 81 1 126 65 120 58 0 123 0 121 130 81 1 93
 67 91 58 123 0 0 89 131 83 4 128 0 0 .772549019607843 0 82 1 129 0 83 1 131 0 8
0 1 120 0 132 8001 0 0 0 0 3 5 0 0 0 FFFFTFTFFFFFFF2 83 3 130 .772549019607843 .
772549019607843 .772549019607843 79 15 132 SDL/TYSA_COLOUR83 3 127 .301960784313
7255 .3058823529411765 .2901960784313725 81 1 110 74 120 51 0 106 115 133 134 83
 3 122 .3019607843137255 .3058823529411765 .2901960784313725 81 1 133 77 120 65
 0 102 110 135 136 83 3 134 .3019607843137255 .3058823529411765 .290196078431372
5 81 2 102 78 108 65 133 100 106 99 137 138 81 1 135 80 120 14 0 99 133 0 139 83
 3 136 .3019607843137255 .3058823529411765 .2901960784313725 81 2 99 81 108 14 1
35 98 102 0 140 141 83 3 139 .772549019607843 .772549019607843 .772549019607843
 83 4 140 0 0 .772549019607843 0 82 1 141 0 83 4 137 0 0 .2902572924052055 0 82
 1 138 0 79 21 119 SDL/TYSA_REFLECTIVITY83 4 112 0 0 .2902572924052055 0 82 1 11
3 0 79 21 109 SDL/TYSA_TRANSLUCENCY83 1 104 0 83 1 101 0 50 96 57 0 58 0 90 0 +-
.015 0 0 -1 0 0 0 0 1 83 1 95 0 17 26 0 54 45 27 33 20 9 0 25 -19 15 35 0 1 0 8
 4 S0 74 20 13 6 0 0 142 12 135 99 98 2 0 0 0 0 0 0 0 0 0 0 0 0 0 0 81 1 142 63
 143 1 0 12 0 0 144 81 1 12 64 145 1 142 2 0 0 146 80 1 145 91 147 8041 0 0 0 0
 3 5 0 0 0 TTTFFFFFFFFFFF2 83 1 146 0 79 23 147 SDL/TYSA_TRANSLUCENCY_280 1 143
 120 148 8040 0 0 0 0 3 5 0 0 0 TTTFFFFFFFFFFF2 83 3 144 .3019607843137255 .3058
823529411765 .2901960784313725 79 17 148 SDL/TYSA_COLOUR_280 1 11 149 150 8017 0
 0 0 0 0 0 0 0 0 TTTTTTTTTTTTTF3 79 13 150 SDL/TYSA_NAME1 0 
